<svg width="133" height="80" viewBox="0 0 133 80" fill="none" xmlns="http://www.w3.org/2000/svg">
<path d="M78 39.5C78 60.763 80.263 78 59 78C37.737 78 20.5 60.763 20.5 39.5C20.5 18.237 37.737 1 59 1C80.263 1 78 18.237 78 39.5Z" fill="#B4B7D1"/>
<path d="M73.4274 40C73.4274 62.0914 75.7859 80 53.6253 80C31.4647 80 0 62.0914 0 40C0 17.9086 31.4647 0 53.6253 0C75.7859 0 73.4274 17.9086 73.4274 40Z" fill="#8A8EB0"/>
<line x1="93.5013" y1="41.0013" x2="129.501" y2="41.0169" stroke="#8A8EB0" stroke-width="6" stroke-linecap="round"/>
<line x1="91.9511" y1="26.7632" x2="124.578" y2="11.5491" stroke="#8A8EB0" stroke-width="6" stroke-linecap="round"/>
<line x1="91.4868" y1="55.5489" x2="124.114" y2="70.7631" stroke="#8A8EB0" stroke-width="6" stroke-linecap="round"/>
</svg>
