<svg width="151" height="119" viewBox="0 0 151 119" fill="none" xmlns="http://www.w3.org/2000/svg">
<circle cx="52.6069" cy="65.7373" r="52.6069" fill="#B4B7D1"/>
<line x1="28.8247" y1="18.7275" x2="32.1649" y2="24.5727" stroke="#8A8EB0"/>
<line x1="8.59866" y1="36.9121" x2="14.4439" y2="40.2522" stroke="#8A8EB0"/>
<line y1="64.4023" x2="8.3503" y2="64.4023" stroke="#8A8EB0"/>
<line x1="7.31867" y1="92.8339" x2="13.1639" y2="90.3288" stroke="#8A8EB0"/>
<line x1="27.1396" y1="112.222" x2="30.4798" y2="107.211" stroke="#8A8EB0"/>
<line x1="52.1064" y1="118.345" x2="52.1064" y2="112.5" stroke="#8A8EB0"/>
<line x1="53.1064" y1="13.1304" x2="53.1064" y2="19.8106" stroke="#8A8EB0"/>
<line x1="78.0863" y1="27.8705" x2="82.2614" y2="22.0253" stroke="#8A8EB0"/>
<line x1="97.1406" y1="37.7622" x2="92.1305" y2="41.1023" stroke="#8A8EB0"/>
<line x1="99.3682" y1="64.4023" x2="105.213" y2="64.4023" stroke="#8A8EB0"/>
<line x1="92.1736" y1="88.7341" x2="97.1838" y2="92.9092" stroke="#8A8EB0"/>
<line x1="77.2301" y1="103.858" x2="81.4053" y2="109.703" stroke="#8A8EB0"/>
<circle cx="52.6073" cy="65.7377" r="31.2362" fill="#EDEFFE" stroke="#8A8EB0" stroke-width="6"/>
<circle cx="52.6071" cy="65.7369" r="7.51527" fill="#8A8EB0"/>
<line x1="52.4374" y1="31.4822" x2="53.2933" y2="99.9544" stroke="#8A8EB0" stroke-width="3"/>
<line x1="18.3711" y1="65.9072" x2="86.8435" y2="65.9072" stroke="#8A8EB0" stroke-width="3"/>
<line x1="26.553" y1="88.0034" x2="77.5251" y2="42.1152" stroke="#8A8EB0" stroke-width="3"/>
<line x1="30.315" y1="42.1593" x2="76.2416" y2="90.591" stroke="#8A8EB0" stroke-width="3"/>
<path d="M68.3128 37.9663C66.2811 36.5801 65.3561 33.983 66.2273 31.6829L73.3124 12.9783C74.3171 10.326 77.3136 9.05436 79.8604 10.3027C84.2136 12.4365 90.8377 15.9793 96.4457 20.2286C103.647 25.6854 108.331 32.9675 109.806 35.6765C111.323 38.4619 113.901 47.5159 113.981 55.7173C114.039 61.5748 113.175 67.1387 112.447 70.7555C111.96 73.1721 109.672 74.7009 107.225 74.3998L88.8588 72.1393C86.2967 71.8239 84.386 69.6127 84.2662 67.0341C84.0428 62.2241 83.2516 54.6806 80.5802 49.872C77.8961 45.0407 72.106 40.5544 68.3128 37.9663Z" fill="#8A8EB0"/>
<path d="M151 81.2448C151 86.6325 144.559 91 139.211 91C133.862 91 127 86.6325 127 81.2448C127 77.4461 129.429 72.6447 133.316 65.9759C134.942 63.1863 137.633 50 139.211 50C140.788 50 143.25 63.1863 144.825 65.9759C148.588 72.6447 151 77.4461 151 81.2448Z" fill="#8A8EB0"/>
</svg>
