<svg width="120" height="125" viewBox="0 0 120 125" fill="none" xmlns="http://www.w3.org/2000/svg">
<rect x="1" y="1" width="118" height="80.1926" rx="2" fill="#EDEFFE" stroke="#8A8EB0" stroke-width="2"/>
<rect x="4.57812" y="2" width="2.57778" height="78.1926" fill="#8A8EB0"/>
<rect x="9.7334" y="2" width="2.57778" height="78.1926" fill="#8A8EB0"/>
<rect x="14.8896" y="2" width="2.57778" height="78.1926" fill="#8A8EB0"/>
<rect x="40.667" y="2" width="2.57778" height="78.1926" fill="#8A8EB0"/>
<rect x="66.4443" y="2" width="2.57778" height="78.1926" fill="#8A8EB0"/>
<rect x="92.2227" y="2" width="2.57778" height="78.1926" fill="#8A8EB0"/>
<rect x="20.0449" y="2" width="2.57778" height="78.1926" fill="#8A8EB0"/>
<rect x="45.8223" y="2" width="2.57778" height="78.1926" fill="#8A8EB0"/>
<rect x="71.6006" y="2" width="2.57778" height="78.1926" fill="#8A8EB0"/>
<rect x="97.3779" y="2" width="2.57778" height="78.1926" fill="#8A8EB0"/>
<rect x="25.2002" y="2" width="2.57778" height="78.1926" fill="#8A8EB0"/>
<rect x="50.9785" y="2" width="2.57778" height="78.1926" fill="#8A8EB0"/>
<rect x="76.7559" y="2" width="2.57778" height="78.1926" fill="#8A8EB0"/>
<rect x="102.533" y="2" width="2.57778" height="78.1926" fill="#8A8EB0"/>
<rect x="30.3555" y="2" width="2.57778" height="78.1926" fill="#8A8EB0"/>
<rect x="56.1338" y="2" width="2.57778" height="78.1926" fill="#8A8EB0"/>
<rect x="81.9111" y="2" width="2.57778" height="78.1926" fill="#8A8EB0"/>
<rect x="107.689" y="2" width="2.57778" height="78.1926" fill="#8A8EB0"/>
<rect x="35.5117" y="2" width="2.57778" height="78.1926" fill="#8A8EB0"/>
<rect x="61.2891" y="2" width="2.57778" height="78.1926" fill="#8A8EB0"/>
<rect x="87.0674" y="2" width="2.57778" height="78.1926" fill="#8A8EB0"/>
<rect x="112.845" y="2" width="2.57778" height="78.1926" fill="#8A8EB0"/>
<path d="M41.6649 89.6531C41.4733 89.2858 41.0203 89.1435 40.6531 89.3351C40.2858 89.5267 40.1435 89.9797 40.3351 90.3469L41.6649 89.6531ZM40.3351 97.3197C40.1435 97.687 40.2858 98.14 40.6531 98.3316C41.0203 98.5232 41.4733 98.3808 41.6649 98.0136L40.3351 97.3197ZM42.8793 93.602L43.5443 93.2551L42.8793 93.602ZM40.3351 90.3469L42.2144 93.949L43.5443 93.2551L41.6649 89.6531L40.3351 90.3469ZM42.2144 93.7177L40.3351 97.3197L41.6649 98.0136L43.5443 94.4115L42.2144 93.7177ZM42.2144 93.949C42.1766 93.8765 42.1766 93.7901 42.2144 93.7177L43.5443 94.4115C43.7333 94.0492 43.7333 93.6174 43.5443 93.2551L42.2144 93.949Z" fill="#8A8EB0"/>
<path d="M41.6649 97.3196C41.4733 96.9523 41.0203 96.81 40.6531 97.0016C40.2858 97.1932 40.1435 97.6462 40.3351 98.0134L41.6649 97.3196ZM40.3351 104.986C40.1435 105.353 40.2858 105.807 40.6531 105.998C41.0203 106.19 41.4733 106.047 41.6649 105.68L40.3351 104.986ZM42.8793 101.269L43.5443 100.922L42.8793 101.269ZM40.3351 98.0134L42.2144 101.615L43.5443 100.922L41.6649 97.3196L40.3351 98.0134ZM42.2144 101.384L40.3351 104.986L41.6649 105.68L43.5443 102.078L42.2144 101.384ZM42.2144 101.615C42.1766 101.543 42.1766 101.457 42.2144 101.384L43.5443 102.078C43.7333 101.716 43.7333 101.284 43.5443 100.922L42.2144 101.615Z" fill="#8A8EB0"/>
<path d="M41.6649 104.987C41.4733 104.619 41.0203 104.477 40.6531 104.669C40.2858 104.86 40.1435 105.313 40.3351 105.68L41.6649 104.987ZM40.3351 112.653C40.1435 113.02 40.2858 113.473 40.6531 113.665C41.0203 113.857 41.4733 113.714 41.6649 113.347L40.3351 112.653ZM42.8793 108.936L43.5443 108.589L42.8793 108.936ZM40.3351 105.68L42.2144 109.282L43.5443 108.589L41.6649 104.987L40.3351 105.68ZM42.2144 109.051L40.3351 112.653L41.6649 113.347L43.5443 109.745L42.2144 109.051ZM42.2144 109.282C42.1766 109.21 42.1766 109.124 42.2144 109.051L43.5443 109.745C43.7333 109.383 43.7333 108.951 43.5443 108.589L42.2144 109.282Z" fill="#8A8EB0"/>
<path d="M108.665 89.6531C108.473 89.2858 108.02 89.1435 107.653 89.3351C107.286 89.5267 107.143 89.9797 107.335 90.3469L108.665 89.6531ZM107.335 97.3197C107.143 97.687 107.286 98.14 107.653 98.3316C108.02 98.5232 108.473 98.3808 108.665 98.0136L107.335 97.3197ZM109.879 93.602L110.544 93.2551L109.879 93.602ZM107.335 90.3469L109.214 93.949L110.544 93.2551L108.665 89.6531L107.335 90.3469ZM109.214 93.7177L107.335 97.3197L108.665 98.0136L110.544 94.4115L109.214 93.7177ZM109.214 93.949C109.177 93.8765 109.177 93.7901 109.214 93.7177L110.544 94.4115C110.733 94.0492 110.733 93.6174 110.544 93.2551L109.214 93.949Z" fill="#8A8EB0"/>
<path d="M108.665 97.3196C108.473 96.9523 108.02 96.81 107.653 97.0016C107.286 97.1932 107.143 97.6462 107.335 98.0134L108.665 97.3196ZM107.335 104.986C107.143 105.353 107.286 105.807 107.653 105.998C108.02 106.19 108.473 106.047 108.665 105.68L107.335 104.986ZM109.879 101.269L110.544 100.922L109.879 101.269ZM107.335 98.0134L109.214 101.615L110.544 100.922L108.665 97.3196L107.335 98.0134ZM109.214 101.384L107.335 104.986L108.665 105.68L110.544 102.078L109.214 101.384ZM109.214 101.615C109.177 101.543 109.177 101.457 109.214 101.384L110.544 102.078C110.733 101.716 110.733 101.284 110.544 100.922L109.214 101.615Z" fill="#8A8EB0"/>
<path d="M108.665 104.987C108.473 104.619 108.02 104.477 107.653 104.669C107.286 104.86 107.143 105.313 107.335 105.68L108.665 104.987ZM107.335 112.653C107.143 113.02 107.286 113.473 107.653 113.665C108.02 113.857 108.473 113.714 108.665 113.347L107.335 112.653ZM109.879 108.936L110.544 108.589L109.879 108.936ZM107.335 105.68L109.214 109.282L110.544 108.589L108.665 104.987L107.335 105.68ZM109.214 109.051L107.335 112.653L108.665 113.347L110.544 109.745L109.214 109.051ZM109.214 109.282C109.177 109.21 109.177 109.124 109.214 109.051L110.544 109.745C110.733 109.383 110.733 108.951 110.544 108.589L109.214 109.282Z" fill="#8A8EB0"/>
<path d="M9.67964 97.6828C9.50447 97.3075 9.05819 97.1452 8.68284 97.3204C8.30748 97.4955 8.1452 97.9418 8.32036 98.3172L9.67964 97.6828ZM8.32036 106.254C8.1452 106.63 8.30748 107.076 8.68284 107.251C9.05819 107.426 9.50447 107.264 9.67964 106.889L8.32036 106.254ZM10.9013 102.074L11.581 101.757L10.9013 102.074ZM10.9013 102.497L11.581 102.814L10.9013 102.497ZM8.32036 98.3172L10.2217 102.391L11.581 101.757L9.67964 97.6828L8.32036 98.3172ZM10.2217 102.18L8.32036 106.254L9.67964 106.889L11.581 102.814L10.2217 102.18ZM10.2217 102.391C10.1904 102.324 10.1904 102.247 10.2217 102.18L11.581 102.814C11.7373 102.479 11.7373 102.092 11.581 101.757L10.2217 102.391Z" fill="#8A8EB0"/>
<path d="M9.67964 106.254C9.50447 105.879 9.05819 105.716 8.68284 105.892C8.30748 106.067 8.1452 106.513 8.32036 106.888L9.67964 106.254ZM8.32036 114.826C8.1452 115.201 8.30748 115.647 8.68284 115.822C9.05819 115.998 9.50447 115.835 9.67964 115.46L8.32036 114.826ZM10.9013 110.646L11.581 110.328L10.9013 110.646ZM10.9013 111.068L11.581 111.386L10.9013 111.068ZM8.32036 106.888L10.2217 110.963L11.581 110.328L9.67964 106.254L8.32036 106.888ZM10.2217 110.751L8.32036 114.826L9.67964 115.46L11.581 111.386L10.2217 110.751ZM10.2217 110.963C10.1904 110.896 10.1904 110.818 10.2217 110.751L11.581 111.386C11.7373 111.051 11.7373 110.663 11.581 110.328L10.2217 110.963Z" fill="#8A8EB0"/>
<path d="M9.67964 114.826C9.50447 114.451 9.05819 114.288 8.68284 114.463C8.30748 114.639 8.1452 115.085 8.32036 115.46L9.67964 114.826ZM8.32036 123.397C8.1452 123.773 8.30748 124.219 8.68284 124.394C9.05819 124.569 9.50447 124.407 9.67964 124.032L8.32036 123.397ZM10.9013 119.217L11.581 118.9L10.9013 119.217ZM10.9013 119.64L11.581 119.957L10.9013 119.64ZM8.32036 115.46L10.2217 119.535L11.581 118.9L9.67964 114.826L8.32036 115.46ZM10.2217 119.323L8.32036 123.397L9.67964 124.032L11.581 119.957L10.2217 119.323ZM10.2217 119.535C10.1904 119.467 10.1904 119.39 10.2217 119.323L11.581 119.957C11.7373 119.622 11.7373 119.235 11.581 118.9L10.2217 119.535Z" fill="#8A8EB0"/>
<path d="M78.6796 97.6828C78.5045 97.3075 78.0582 97.1452 77.6828 97.3204C77.3075 97.4955 77.1452 97.9418 77.3204 98.3172L78.6796 97.6828ZM77.3204 106.254C77.1452 106.63 77.3075 107.076 77.6828 107.251C78.0582 107.426 78.5045 107.264 78.6796 106.889L77.3204 106.254ZM79.9013 102.074L80.581 101.757L79.9013 102.074ZM79.9013 102.497L80.581 102.814L79.9013 102.497ZM77.3204 98.3172L79.2217 102.391L80.581 101.757L78.6796 97.6828L77.3204 98.3172ZM79.2217 102.18L77.3204 106.254L78.6796 106.889L80.581 102.814L79.2217 102.18ZM79.2217 102.391C79.1904 102.324 79.1904 102.247 79.2217 102.18L80.581 102.814C80.7373 102.479 80.7373 102.092 80.581 101.757L79.2217 102.391Z" fill="#8A8EB0"/>
<path d="M78.6796 106.254C78.5045 105.879 78.0582 105.716 77.6828 105.892C77.3075 106.067 77.1452 106.513 77.3204 106.888L78.6796 106.254ZM77.3204 114.826C77.1452 115.201 77.3075 115.647 77.6828 115.822C78.0582 115.998 78.5045 115.835 78.6796 115.46L77.3204 114.826ZM79.9013 110.646L80.581 110.328L79.9013 110.646ZM79.9013 111.068L80.581 111.386L79.9013 111.068ZM77.3204 106.888L79.2217 110.963L80.581 110.328L78.6796 106.254L77.3204 106.888ZM79.2217 110.751L77.3204 114.826L78.6796 115.46L80.581 111.386L79.2217 110.751ZM79.2217 110.963C79.1904 110.896 79.1904 110.818 79.2217 110.751L80.581 111.386C80.7373 111.051 80.7373 110.663 80.581 110.328L79.2217 110.963Z" fill="#8A8EB0"/>
<path d="M78.6796 114.826C78.5045 114.451 78.0582 114.288 77.6828 114.463C77.3075 114.639 77.1452 115.085 77.3204 115.46L78.6796 114.826ZM77.3204 123.397C77.1452 123.773 77.3075 124.219 77.6828 124.394C78.0582 124.569 78.5045 124.407 78.6796 124.032L77.3204 123.397ZM79.9013 119.217L80.581 118.9L79.9013 119.217ZM79.9013 119.64L80.581 119.957L79.9013 119.64ZM77.3204 115.46L79.2217 119.535L80.581 118.9L78.6796 114.826L77.3204 115.46ZM79.2217 119.323L77.3204 123.397L78.6796 124.032L80.581 119.957L79.2217 119.323ZM79.2217 119.535C79.1904 119.467 79.1904 119.39 79.2217 119.323L80.581 119.957C80.7373 119.622 80.7373 119.235 80.581 118.9L79.2217 119.535Z" fill="#8A8EB0"/>
</svg>
