<svg width="161" height="112" viewBox="0 0 161 112" fill="none" xmlns="http://www.w3.org/2000/svg">
<path d="M4.73648 34.0839C3.77745 28.645 7.40913 23.4584 12.8481 22.4994L35.0728 18.5805C40.5117 17.6215 45.6983 21.2532 46.6573 26.6921L58.5593 94.1914C59.5183 99.6303 55.8866 104.817 50.4477 105.776L28.223 109.695C22.784 110.654 17.5975 107.022 16.6384 101.583L4.73648 34.0839Z" fill="#B4B7D1"/>
<line x1="17.7771" y1="34.8686" x2="27.8181" y2="42.7171" stroke="#8A8EB0" stroke-linecap="round"/>
<line x1="27.7451" y1="42.7295" x2="34.4968" y2="31.9203" stroke="#8A8EB0" stroke-linecap="round"/>
<line x1="21.0295" y1="53.3144" x2="31.0706" y2="61.1629" stroke="#8A8EB0" stroke-linecap="round"/>
<line x1="30.9976" y1="61.1748" x2="37.7493" y2="50.3656" stroke="#8A8EB0" stroke-linecap="round"/>
<line x1="24.2819" y1="71.7592" x2="34.323" y2="79.6078" stroke="#8A8EB0" stroke-linecap="round"/>
<line x1="34.25" y1="79.6196" x2="41.0017" y2="68.8105" stroke="#8A8EB0" stroke-linecap="round"/>
<line x1="27.5344" y1="90.2045" x2="37.5755" y2="98.0531" stroke="#8A8EB0" stroke-linecap="round"/>
<line x1="37.5024" y1="98.065" x2="44.2541" y2="87.2558" stroke="#8A8EB0" stroke-linecap="round"/>
<path d="M100.263 17.2402C99.3038 11.8012 102.936 6.61464 108.374 5.65561L130.599 1.73679C136.038 0.777757 141.225 4.40944 142.184 9.84839L154.086 77.3476C155.045 82.7866 151.413 87.9732 145.974 88.9322L123.749 92.851C118.31 93.8101 113.124 90.1784 112.165 84.7394L100.263 17.2402Z" fill="#B4B7D1"/>
<line x1="112.74" y1="15.2973" x2="122.781" y2="23.1459" stroke="#8A8EB0" stroke-linecap="round"/>
<line x1="122.708" y1="23.1582" x2="129.46" y2="12.349" stroke="#8A8EB0" stroke-linecap="round"/>
<line x1="115.992" y1="33.7431" x2="126.033" y2="41.5917" stroke="#8A8EB0" stroke-linecap="round"/>
<line x1="125.96" y1="41.6035" x2="132.712" y2="30.7943" stroke="#8A8EB0" stroke-linecap="round"/>
<line x1="119.245" y1="52.1879" x2="129.286" y2="60.0365" stroke="#8A8EB0" stroke-linecap="round"/>
<line x1="129.213" y1="60.0483" x2="135.965" y2="49.2392" stroke="#8A8EB0" stroke-linecap="round"/>
<line x1="122.497" y1="70.6332" x2="132.538" y2="78.4818" stroke="#8A8EB0" stroke-linecap="round"/>
<line x1="132.465" y1="78.4937" x2="139.217" y2="67.6845" stroke="#8A8EB0" stroke-linecap="round"/>
<line x1="33.7761" y1="61.9651" x2="131.037" y2="44.8473" stroke="#B4B7D1" stroke-width="3"/>
<circle cx="79.0154" cy="53.7823" r="8.51351" transform="rotate(-10 79.0154 53.7823)" fill="#8A8EB0"/>
<path d="M1.61435 55.9174C1.37667 55.5782 0.908981 55.4959 0.569748 55.7335C0.230514 55.9712 0.148191 56.4389 0.385874 56.7781L1.61435 55.9174ZM1.76414 64.5947C1.65681 64.9947 1.89413 65.4061 2.2942 65.5134C2.69426 65.6207 3.10559 65.3834 3.21291 64.9833L1.76414 64.5947ZM3.58004 60.03L4.19428 59.5996L3.58004 60.03ZM3.65348 60.4465L4.37786 60.6408L3.65348 60.4465ZM0.385874 56.7781L2.9658 60.4604L4.19428 59.5996L1.61435 55.9174L0.385874 56.7781ZM2.92909 60.2521L1.76414 64.5947L3.21291 64.9833L4.37786 60.6408L2.92909 60.2521ZM2.9658 60.4604C2.92337 60.3998 2.90993 60.3236 2.92909 60.2521L4.37786 60.6408C4.47367 60.2837 4.40645 59.9025 4.19428 59.5996L2.9658 60.4604Z" fill="#8A8EB0"/>
<path d="M3.10263 64.3583C2.86495 64.0191 2.39726 63.9368 2.05803 64.1745C1.7188 64.4121 1.63647 64.8798 1.87416 65.2191L3.10263 64.3583ZM3.25242 73.0356C3.14509 73.4357 3.38241 73.847 3.78248 73.9543C4.18255 74.0616 4.59387 73.8243 4.70119 73.4242L3.25242 73.0356ZM5.06832 68.4709L5.68256 68.0406L5.06832 68.4709ZM5.14176 68.8874L5.86614 69.0817L5.14176 68.8874ZM1.87416 65.2191L4.45409 68.9013L5.68256 68.0406L3.10263 64.3583L1.87416 65.2191ZM4.41737 68.693L3.25242 73.0356L4.70119 73.4242L5.86614 69.0817L4.41737 68.693ZM4.45409 68.9013C4.41165 68.8407 4.39821 68.7645 4.41737 68.693L5.86614 69.0817C5.96195 68.7246 5.89473 68.3434 5.68256 68.0406L4.45409 68.9013Z" fill="#8A8EB0"/>
<path d="M4.59091 72.7997C4.35323 72.4605 3.88554 72.3782 3.54631 72.6159C3.20708 72.8536 3.12475 73.3212 3.36244 73.6605L4.59091 72.7997ZM4.7407 81.477C4.63338 81.8771 4.87069 82.2884 5.27076 82.3957C5.67083 82.503 6.08215 82.2657 6.18947 81.8656L4.7407 81.477ZM6.5566 76.9123L7.17084 76.482L6.5566 76.9123ZM6.63004 77.3288L7.35443 77.5231L6.63004 77.3288ZM3.36244 73.6605L5.94237 77.3427L7.17084 76.482L4.59091 72.7997L3.36244 73.6605ZM5.90565 77.1345L4.7407 81.477L6.18947 81.8656L7.35443 77.5231L5.90565 77.1345ZM5.94237 77.3427C5.89993 77.2821 5.88649 77.2059 5.90565 77.1345L7.35443 77.5231C7.45023 77.166 7.38301 76.7848 7.17084 76.482L5.94237 77.3427Z" fill="#8A8EB0"/>
<path d="M153.614 41.9174C153.377 41.5782 152.909 41.4959 152.57 41.7335C152.231 41.9712 152.148 42.4389 152.386 42.7781L153.614 41.9174ZM153.764 50.5947C153.657 50.9947 153.894 51.4061 154.294 51.5134C154.694 51.6207 155.106 51.3834 155.213 50.9833L153.764 50.5947ZM155.58 46.03L156.194 45.5996L155.58 46.03ZM155.653 46.4465L156.378 46.6408L155.653 46.4465ZM152.386 42.7781L154.966 46.4604L156.194 45.5996L153.614 41.9174L152.386 42.7781ZM154.929 46.2521L153.764 50.5947L155.213 50.9833L156.378 46.6408L154.929 46.2521ZM154.966 46.4604C154.923 46.3998 154.91 46.3236 154.929 46.2521L156.378 46.6408C156.474 46.2837 156.406 45.9025 156.194 45.5996L154.966 46.4604Z" fill="#8A8EB0"/>
<path d="M155.103 50.3583C154.865 50.0191 154.397 49.9368 154.058 50.1745C153.719 50.4121 153.636 50.8798 153.874 51.2191L155.103 50.3583ZM155.252 59.0356C155.145 59.4357 155.382 59.847 155.782 59.9543C156.183 60.0616 156.594 59.8243 156.701 59.4242L155.252 59.0356ZM157.068 54.4709L157.683 54.0406L157.068 54.4709ZM157.142 54.8874L157.866 55.0817L157.142 54.8874ZM153.874 51.2191L156.454 54.9013L157.683 54.0406L155.103 50.3583L153.874 51.2191ZM156.417 54.693L155.252 59.0356L156.701 59.4242L157.866 55.0817L156.417 54.693ZM156.454 54.9013C156.412 54.8407 156.398 54.7645 156.417 54.693L157.866 55.0817C157.962 54.7246 157.895 54.3434 157.683 54.0406L156.454 54.9013Z" fill="#8A8EB0"/>
<path d="M156.591 58.7997C156.353 58.4605 155.886 58.3782 155.546 58.6159C155.207 58.8536 155.125 59.3212 155.362 59.6605L156.591 58.7997ZM156.741 67.477C156.633 67.8771 156.871 68.2884 157.271 68.3957C157.671 68.503 158.082 68.2657 158.189 67.8656L156.741 67.477ZM158.557 62.9123L159.171 62.482L158.557 62.9123ZM158.63 63.3288L159.354 63.5231L158.63 63.3288ZM155.362 59.6605L157.942 63.3427L159.171 62.482L156.591 58.7997L155.362 59.6605ZM157.906 63.1345L156.741 67.477L158.189 67.8656L159.354 63.5231L157.906 63.1345ZM157.942 63.3427C157.9 63.2821 157.886 63.2059 157.906 63.1345L159.354 63.5231C159.45 63.166 159.383 62.7848 159.171 62.482L157.942 63.3427Z" fill="#8A8EB0"/>
</svg>
