<svg width="138" height="92" viewBox="0 0 138 92" fill="none" xmlns="http://www.w3.org/2000/svg">
<path d="M28.8212 88.7162L3.25195 23.0664C32.8048 12.1647 51.3177 7.28805 69.5256 7.50704C87.7601 7.72635 105.91 13.0542 134.786 23.13L110.942 88.7237C94.2413 82.1402 81.8066 78.7397 69.4093 78.7435C57.0055 78.7473 44.8876 82.1588 28.8212 88.7162ZM110.768 89.2015C110.768 89.2008 110.768 89.2001 110.769 89.1993L110.768 89.2015ZM29.0036 89.1845L29.003 89.1832L29.0036 89.1845Z" fill="#EDEFFE" stroke="#8A8EB0" stroke-width="5"/>
<path d="M106.94 30.0998C115.501 30.0998 119 23.2843 119 15C109.828 12.5205 105.371 10.5606 96.0005 8.5C93.7005 16.0996 90.7404 29.0999 106.94 30.0998Z" fill="#EDEFFE"/>
<path d="M107.311 0.752066C111.149 7.70348 115.241 12.7426 115.093 16.6868L97.3959 15.1385C97.4712 12.3799 101.497 7.42998 107.311 0.752066Z" fill="#8A8EB0"/>
<ellipse cx="106.081" cy="17.4752" rx="9.33943" ry="8.91491" transform="rotate(5 106.081 17.4752)" fill="#8A8EB0"/>
</svg>
